<svg xmlns="http://www.w3.org/2000/svg" viewBox="0 0 1440 320"><path fill="#74b60b" fill-opacity="1" d="M0,192L30,160C60,128,120,64,180,64C240,64,300,128,360,154.7C420,181,480,171,540,176C600,181,660,203,720,229.3C780,256,840,288,900,256C960,224,1020,128,1080,112C1140,96,1200,160,1260,181.3C1320,203,1380,181,1410,170.7L1440,160L1440,320L1410,320C1380,320,1320,320,1260,320C1200,320,1140,320,1080,320C1020,320,960,320,900,320C840,320,780,320,720,320C660,320,600,320,540,320C480,320,420,320,360,320C300,320,240,320,180,320C120,320,60,320,30,320L0,320Z"></path></svg>